<svg class="svg-icon" style="width: 1em; height: 1em;vertical-align: middle;fill: currentColor;overflow: hidden;" viewBox="0 0 1024 1024" version="1.1" xmlns="http://www.w3.org/2000/svg"><path d="M857.088 271.36c-22.528-3.072-43.008 13.312-45.056 35.84l-70.656 604.16H303.104l-70.656-604.16c-3.072-22.528-22.528-38.912-45.056-35.84-22.528 3.072-38.912 22.528-35.84 45.056l74.752 640c2.048 20.48 19.456 35.84 40.96 35.84H778.24c20.48 0 37.888-15.36 40.96-35.84L892.928 317.44c3.072-22.528-13.312-43.008-35.84-46.08zM870.4 150.528H694.272l-17.408-87.04c-4.096-19.456-20.48-32.768-39.936-32.768H408.576C389.12 30.72 372.736 44.032 368.64 63.488l-17.408 87.04H174.08c-22.528 0-40.96 18.432-40.96 40.96s18.432 40.96 40.96 40.96h696.32c22.528 0 40.96-18.432 40.96-40.96s-18.432-40.96-40.96-40.96zM441.344 112.64h160.768l8.192 38.912H434.176l7.168-38.912z" fill="#3A3A3A" /><path d="M719.872 405.504c0-22.528-18.432-40.96-40.96-40.96H366.592c-22.528 0-40.96 18.432-40.96 40.96s18.432 40.96 40.96 40.96h312.32c22.528 0 40.96-18.432 40.96-40.96zM671.744 603.136c0-22.528-18.432-40.96-40.96-40.96H413.696c-22.528 0-40.96 18.432-40.96 40.96s18.432 40.96 40.96 40.96h218.112c22.528 0 39.936-18.432 39.936-40.96zM591.872 759.808H452.608c-22.528 0-40.96 18.432-40.96 40.96s18.432 40.96 40.96 40.96h140.288c22.528 0 40.96-18.432 40.96-40.96s-19.456-40.96-41.984-40.96z" fill="#3A3A3A" /></svg>
